<svg xmlns="http://www.w3.org/2000/svg" xmlns:xlink="http://www.w3.org/1999/xlink" preserveAspectRatio="xMidYMid meet" version="1.0" viewBox="-1.2 0.0 103.4 101.1" zoomAndPan="magnify" style="fill: rgb(242, 108, 111);" original_string_length="703"><g id="__id31_sdguq6bju"><path d="M88.4,0c-3.1,0-6.2,1.2-8.5,3.5L50.5,32.8L21.2,3.5C18.8,1.2,15.8,0,12.7,0C9.6,0,6.5,1.2,4.2,3.5L3.5,4.2 c-4.7,4.7-4.7,12.3,0,17l29.3,29.3L3.5,79.9c-4.7,4.7-4.7,12.3,0,17l0.7,0.7c2.3,2.3,5.4,3.5,8.5,3.5s6.2-1.2,8.5-3.5l29.3-29.3 l29.3,29.3c2.3,2.3,5.4,3.5,8.5,3.5c3.1,0,6.2-1.2,8.5-3.5l0.7-0.7c4.7-4.7,4.7-12.3,0-17L68.2,50.5l29.3-29.3 c4.7-4.7,4.7-12.3,0-17l-0.7-0.7C94.5,1.2,91.4,0,88.4,0L88.4,0z" style="fill: inherit;"/></g></svg>