<svg xmlns="http://www.w3.org/2000/svg" xmlns:xlink="http://www.w3.org/1999/xlink" preserveAspectRatio="xMidYMid meet" version="1.0" viewBox="-1.6 -0.3 117.9 100.2" zoomAndPan="magnify" style="fill: rgb(0, 0, 0);" original_string_length="904"><g id="__id28_sdguq6bju"><path d="M115.9,11.4c-0.4-3.4-2.1-6.5-4.8-8.6c-2.7-2.1-6-3.1-9.4-2.7c-3.4,0.4-6.4,2.1-8.6,4.8L44.5,66.4L22.9,39 c-4.4-5.6-12.5-6.5-18-2.1C-0.7,41.3-1.6,49.5,2.8,55l31.8,40.2c0.2,0.3,0.5,0.6,0.8,0.9l0.2,0.2c0.3,0.3,0.6,0.5,0.9,0.8 c0.5,0.5,1.1,0.9,1.8,1.2l0.4,0.2c0.6,0.3,1.2,0.6,1.9,0.8c0.5,0.2,1.1,0.3,1.7,0.4c0.2,0,0.3,0.1,0.5,0.1c0.7,0.1,1.2,0.1,1.8,0.1 l0.1,0c0.5,0,1.1-0.1,1.7-0.1c0.2,0,0.3-0.1,0.5-0.1c0.6-0.1,1.2-0.3,1.8-0.5c0.5-0.2,1.1-0.4,1.7-0.8l0.4-0.2 c0.7-0.4,1.3-0.8,1.8-1.2c0.3-0.3,0.6-0.5,0.9-0.8c0.1-0.1,0.1-0.1,0.2-0.3c0.3-0.3,0.5-0.5,0.8-0.9l58.7-74.3 C115.4,18.2,116.3,14.8,115.9,11.4z" style="fill: rgb(88, 183, 112);"/></g></svg>