<svg xmlns="http://www.w3.org/2000/svg" viewBox="0 0 350 350.007"><path d="M350 175.004c0 96.623-78.366 175.003-174.996 175.003C78.324 350 0 271.627 0 175.004 0 78.366 78.324 0 174.996 0 271.627 0 350 78.366 350 175.004z" fill="#58b770"/><path d="M104.389 126.119c0-9.132 2.921-18.405 8.792-27.806 5.864-9.379 14.451-17.167 25.733-23.35 11.289-6.153 24.403-9.237 39.463-9.237 13.97 0 26.264 2.581 36.966 7.73 10.688 5.15 18.942 12.16 24.799 21.016 5.821 8.87 8.743 18.511 8.743 28.909 0 8.177-1.662 15.356-4.98 21.538-3.317 6.154-7.285 11.467-11.876 15.965-4.591 4.471-12.796 12.018-24.658 22.614-3.268 2.978-5.863 5.602-7.865 7.858-1.959 2.264-3.409 4.35-4.386 6.218a32.303 32.303 0 00-2.256 5.645c-.517 1.874-1.316 5.178-2.377 9.874-1.818 10.009-7.583 15.045-17.188 15.045-5.029 0-9.238-1.647-12.647-4.916-3.431-3.289-5.135-8.162-5.135-14.606 0-8.099 1.272-15.095 3.77-21.022 2.483-5.927 5.801-11.126 9.96-15.589 4.151-4.499 9.719-9.812 16.75-15.993 6.188-5.397 10.638-9.457 13.375-12.216 2.73-2.73 5.072-5.779 6.925-9.153 1.925-3.374 2.851-7.031 2.851-10.985 0-7.717-2.871-14.203-8.601-19.508-5.765-5.298-13.136-7.958-22.168-7.958-10.604 0-18.42 2.674-23.441 8.028-4.987 5.341-9.217 13.221-12.697 23.625-3.268 10.865-9.507 16.305-18.652 16.305-5.361 0-9.959-1.896-13.673-5.68-3.673-3.771-5.527-7.909-5.527-12.351zm70.515 158.352c-5.899 0-11.034-1.909-15.434-5.68-4.357-3.806-6.536-9.132-6.536-15.972 0-6.055 2.087-11.155 6.352-15.307 4.244-4.139 9.415-6.218 15.618-6.218 6.048 0 11.127 2.079 15.278 6.218 4.146 4.151 6.189 9.252 6.189 15.307 0 6.762-2.15 12.031-6.493 15.894-4.279 3.863-9.308 5.758-14.974 5.758z" fill="#fff"/></svg>