<svg xmlns="http://www.w3.org/2000/svg" viewBox="0 0 200 200"><circle cx="100" cy="100" r="100" fill="#58b770"/><path d="M38.8 86.3V118c0 1.5 1.2 2.6 2.6 2.6h20.3c.5 0 1 .1 1.4.4l32.2 21.1c1.8 1.1 4.1-.1 4.1-2.2V62.5c0-2.1-2.4-3.4-4.2-2.1l-32 22.9c-.4.3-1 .5-1.5.5H41.5c-1.5-.1-2.7 1.1-2.7 2.5zM116.1 121.8c-.7 0-1.4-.2-2-.5-1.8-1.1-2.4-3.5-1.4-5.3 8.2-13.9.4-26 .1-26.5-1.2-1.8-.7-4.2 1.1-5.4 1.8-1.2 4.2-.7 5.4 1.1.5.7 10.9 16.6.1 34.8-.7 1.1-2 1.8-3.3 1.8zM131.2 131c-.8 0-1.6-.2-2.3-.7-1.7-1.2-2.2-3.7-.9-5.4 16.9-23.6.4-43.3.2-43.5-1.4-1.6-1.2-4.1.4-5.5 1.6-1.4 4.1-1.2 5.5.4.2.2 20.6 24.6.2 53.1-.7 1-1.9 1.6-3.1 1.6z" fill="#fff"/><path d="M145.3 139.9c-.8 0-1.7-.3-2.4-.8-1.7-1.3-2-3.8-.7-5.5 25.5-32.5 1.2-61.5.1-62.7-1.4-1.6-1.2-4.1.4-5.5 1.6-1.4 4.1-1.2 5.5.4.3.3 29.6 35.1.1 72.6-.7 1-1.8 1.5-3 1.5z" fill="#fff"/></svg>