<svg xmlns="http://www.w3.org/2000/svg" xmlns:xlink="http://www.w3.org/1999/xlink" height="499.1" preserveAspectRatio="xMidYMid meet" version="1.0" viewBox="0.0 0.0 235.5 499.1" width="235.5" zoomAndPan="magnify"><defs><clipPath id="a"><path d="M 0 158 L 235.519531 158 L 235.519531 499.070312 L 0 499.070312 Z M 0 158"/></clipPath></defs><g><g clip-path="url(#a)" id="change1_1"><path d="M 209.136719 429.332031 C 191.09375 414.085938 165.078125 429.332031 165.078125 429.332031 L 150.605469 470.78125 C 150.605469 470.78125 178.507812 471.425781 190.671875 470.78125 C 202.839844 470.132812 224.660156 502.894531 233.050781 498.699219 C 241.441406 494.503906 227.175781 444.574219 209.136719 429.332031 Z M 26.382812 429.332031 C 8.339844 444.574219 -5.925781 494.503906 2.46875 498.699219 C 10.859375 502.894531 32.675781 470.132812 44.84375 470.78125 C 57.011719 471.425781 84.914062 470.78125 84.914062 470.78125 L 70.4375 429.332031 C 70.4375 429.332031 44.425781 414.085938 26.382812 429.332031 Z M 74.921875 305.480469 C 76.714844 305.480469 78.605469 304.683594 79.738281 303.445312 C 81.042969 302.023438 81.71875 300.328125 81.644531 298.660156 C 81.5625 296.816406 80.882812 295.203125 79.675781 293.996094 L 78.847656 293.171875 C 77.617188 291.9375 75.839844 291.203125 74.09375 291.203125 C 72.300781 291.203125 70.410156 292 69.277344 293.234375 C 67.972656 294.65625 67.296875 296.355469 67.371094 298.019531 C 67.453125 299.867188 68.136719 301.476562 69.339844 302.683594 L 70.164062 303.507812 C 71.398438 304.742188 73.175781 305.480469 74.921875 305.480469 Z M 106.101562 302.785156 L 105.871094 302.792969 C 103.945312 302.878906 102.269531 303.601562 101.144531 304.824219 C 99.898438 306.183594 99.238281 307.804688 99.238281 309.515625 L 99.238281 309.929688 C 99.238281 311.671875 99.972656 313.449219 101.207031 314.683594 C 102.421875 315.902344 104.191406 316.65625 105.820312 316.65625 C 105.902344 316.65625 105.980469 316.65625 106.058594 316.652344 C 107.980469 316.566406 109.65625 315.84375 110.78125 314.621094 C 112.027344 313.261719 112.6875 311.636719 112.6875 309.929688 L 112.6875 309.515625 C 112.6875 307.773438 111.953125 305.992188 110.71875 304.757812 C 109.5 303.542969 107.730469 302.785156 106.101562 302.785156 Z M 178.667969 235.535156 C 178.667969 201.964844 151.355469 174.652344 117.785156 174.652344 C 84.210938 174.652344 56.898438 201.964844 56.898438 235.535156 C 56.898438 269.109375 84.210938 296.421875 117.785156 296.421875 C 151.355469 296.421875 178.667969 269.109375 178.667969 235.535156 Z M 145.519531 304.816406 C 144.9375 303.015625 143.820312 301.605469 142.378906 300.839844 L 142.296875 300.796875 L 140.972656 300.238281 L 140.835938 300.203125 C 140.25 300.046875 139.652344 299.964844 139.0625 299.964844 C 138.496094 299.964844 137.929688 300.039062 137.371094 300.179688 C 136.804688 300.296875 136.144531 300.601562 135.667969 300.851562 C 134.601562 301.417969 134.167969 301.980469 133.75 302.527344 L 133.644531 302.664062 C 132.683594 303.910156 132.167969 305.425781 132.195312 306.941406 C 132.226562 308.660156 132.914062 310.339844 134.128906 311.664062 C 135.269531 312.914062 136.886719 313.613281 138.9375 313.75 C 139.042969 313.757812 139.148438 313.761719 139.257812 313.761719 C 140.832031 313.761719 142.628906 312.984375 143.828125 311.785156 C 145.097656 310.515625 145.871094 308.609375 145.796875 306.941406 C 145.792969 306.839844 145.78125 306.738281 145.765625 306.628906 C 145.773438 305.9375 145.695312 305.355469 145.519531 304.816406 Z M 173.84375 287.109375 C 172.742188 286.527344 171.566406 286.21875 170.445312 286.21875 C 169.816406 286.21875 169.210938 286.316406 168.632812 286.507812 L 167.394531 286.921875 C 165.667969 287.496094 164.3125 288.554688 163.480469 289.980469 C 162.558594 291.554688 162.300781 293.625 162.828125 295.25 C 163.410156 297.050781 164.527344 298.460938 165.96875 299.222656 C 167.070312 299.804688 168.246094 300.113281 169.367188 300.113281 C 169.996094 300.113281 170.605469 300.019531 171.179688 299.828125 L 172.421875 299.414062 C 174.148438 298.835938 175.503906 297.777344 176.335938 296.355469 C 177.257812 294.777344 177.511719 292.710938 176.988281 291.085938 C 176.402344 289.285156 175.289062 287.871094 173.84375 287.109375 Z M 176.738281 198.285156 C 181.046875 198.285156 183.304688 194.898438 183.304688 191.554688 C 183.304688 188.214844 181.046875 184.835938 176.738281 184.835938 C 172.425781 184.835938 170.171875 188.21875 170.171875 191.5625 C 170.171875 194.902344 172.425781 198.285156 176.738281 198.285156 Z M 180.183594 259.71875 C 179.699219 261.476562 179.984375 263.542969 180.910156 264.976562 C 181.9375 266.570312 183.382812 267.648438 184.972656 268.011719 C 185.519531 268.136719 186.070312 268.199219 186.609375 268.199219 C 187.746094 268.199219 188.835938 267.929688 189.949219 267.375 L 190.773438 266.964844 C 192.441406 266.128906 193.589844 264.308594 193.984375 262.878906 C 194.46875 261.117188 194.183594 259.054688 193.257812 257.621094 C 192.230469 256.027344 190.785156 254.945312 189.195312 254.585938 C 188.648438 254.460938 188.097656 254.394531 187.558594 254.394531 C 186.421875 254.394531 185.332031 254.664062 184.207031 255.226562 L 183.394531 255.632812 C 181.722656 256.46875 180.578125 258.285156 180.183594 259.71875 Z M 45.792969 230.984375 C 45.875 230.984375 45.960938 230.984375 46.042969 230.980469 C 47.890625 230.898438 49.503906 230.214844 50.710938 229.007812 L 51.121094 228.597656 C 52.355469 227.363281 53.089844 225.585938 53.089844 223.839844 C 53.089844 222.050781 52.292969 220.160156 51.058594 219.027344 C 49.714844 217.792969 48.105469 217.113281 46.523438 217.113281 C 46.4375 217.113281 46.355469 217.113281 46.273438 217.117188 C 44.425781 217.199219 42.8125 217.882812 41.605469 219.089844 L 41.195312 219.5 C 39.960938 220.734375 39.226562 222.511719 39.226562 224.257812 C 39.226562 226.046875 40.023438 227.9375 41.257812 229.074219 C 42.601562 230.304688 44.210938 230.984375 45.792969 230.984375 Z M 190.667969 235.949219 C 190.746094 235.949219 190.824219 235.949219 190.902344 235.945312 C 192.824219 235.859375 194.503906 235.136719 195.625 233.914062 C 196.875 232.554688 197.535156 230.933594 197.535156 229.222656 L 197.535156 228.808594 C 197.535156 227.066406 196.796875 225.285156 195.5625 224.050781 C 194.347656 222.835938 192.578125 222.078125 190.945312 222.078125 L 190.714844 222.085938 C 188.792969 222.171875 187.113281 222.894531 185.992188 224.117188 C 184.742188 225.476562 184.085938 227.097656 184.085938 228.808594 L 184.085938 229.222656 C 184.085938 230.964844 184.820312 232.742188 186.050781 233.976562 C 187.269531 235.195312 189.035156 235.949219 190.667969 235.949219 Z M 141.8125 172.628906 C 141.898438 172.628906 141.980469 172.625 142.0625 172.621094 C 143.910156 172.539062 145.523438 171.859375 146.738281 170.644531 L 147.140625 170.238281 C 148.375 169.007812 149.109375 167.230469 149.109375 165.484375 C 149.109375 163.695312 148.3125 161.804688 147.078125 160.667969 C 145.734375 159.433594 144.125 158.753906 142.546875 158.753906 C 142.460938 158.753906 142.375 158.757812 142.292969 158.761719 C 140.449219 158.84375 138.835938 159.523438 137.628906 160.730469 L 137.214844 161.140625 C 135.980469 162.375 135.246094 164.152344 135.246094 165.898438 C 135.246094 167.691406 136.042969 169.582031 137.277344 170.714844 C 138.621094 171.949219 140.230469 172.628906 141.8125 172.628906 Z M 49.167969 259.746094 C 47.246094 259.835938 45.566406 260.558594 44.445312 261.777344 C 43.195312 263.140625 42.535156 264.761719 42.535156 266.472656 L 42.535156 266.886719 C 42.535156 268.628906 43.273438 270.40625 44.507812 271.640625 C 45.722656 272.859375 47.492188 273.613281 49.121094 273.613281 L 49.355469 273.609375 C 51.277344 273.523438 52.957031 272.800781 54.078125 271.578125 C 55.328125 270.214844 55.988281 268.59375 55.988281 266.886719 L 55.988281 266.472656 C 55.988281 264.726562 55.25 262.949219 54.019531 261.71875 C 52.800781 260.5 51.03125 259.742188 49.402344 259.742188 C 49.324219 259.742188 49.246094 259.746094 49.167969 259.746094 Z M 91.476562 175.109375 L 91.890625 175.109375 C 93.636719 175.109375 95.414062 174.371094 96.648438 173.136719 C 97.917969 171.867188 98.691406 169.964844 98.613281 168.289062 C 98.527344 166.367188 97.808594 164.6875 96.582031 163.5625 C 95.222656 162.316406 93.601562 161.65625 91.890625 161.65625 L 91.476562 161.65625 C 89.734375 161.65625 87.957031 162.390625 86.71875 163.628906 C 85.453125 164.898438 84.679688 166.800781 84.753906 168.476562 C 84.839844 170.398438 85.5625 172.074219 86.785156 173.199219 C 88.144531 174.449219 89.769531 175.109375 91.476562 175.109375 Z M 57.398438 193.0625 C 56.175781 191.941406 55.453125 190.265625 55.367188 188.339844 C 55.292969 186.664062 56.066406 184.761719 57.335938 183.492188 C 58.570312 182.257812 60.347656 181.523438 62.09375 181.523438 L 62.507812 181.523438 C 64.214844 181.523438 65.835938 182.183594 67.195312 183.429688 C 68.421875 184.554688 69.144531 186.234375 69.230469 188.15625 C 69.304688 189.828125 68.53125 191.730469 67.261719 193.003906 C 66.027344 194.238281 64.25 194.972656 62.507812 194.972656 L 62.09375 194.972656 C 60.382812 194.972656 58.761719 194.3125 57.398438 193.0625" fill="#ef3220"/></g><g id="change2_1"><path d="M 117.785156 197.003906 C 96.503906 197.003906 79.25 214.257812 79.25 235.535156 C 79.25 256.816406 96.503906 274.070312 117.785156 274.070312 C 139.066406 274.070312 156.316406 256.816406 156.316406 235.535156 C 156.316406 214.257812 139.066406 197.003906 117.785156 197.003906 Z M 143.746094 470.625 C 142.328125 477.464844 140.914062 484.308594 139.503906 491.148438 C 139.074219 493.210938 136.957031 494.457031 135.011719 494.570312 C 128.671875 494.929688 122.332031 495.160156 115.984375 495.210938 C 110.816406 495.25 105.203125 495.75 100.089844 494.945312 C 95.898438 494.285156 94.539062 491.554688 93.460938 487.753906 C 91.917969 482.328125 90.453125 476.882812 88.953125 471.445312 C 88.28125 470.195312 88.050781 468.6875 88.460938 467.320312 C 89.902344 462.503906 95.824219 463.453125 99.613281 463.5625 L 139.253906 464.730469 C 142.421875 464.824219 144.367188 467.621094 143.746094 470.625" fill="#51b59f"/></g><g id="change3_1"><path d="M 195.464844 229.222656 C 195.464844 230.484375 194.9375 231.605469 194.101562 232.515625 C 193.261719 233.429688 192.011719 233.824219 190.808594 233.878906 C 189.648438 233.929688 188.324219 233.320312 187.515625 232.515625 C 186.671875 231.671875 186.152344 230.417969 186.152344 229.222656 L 186.152344 228.808594 C 186.152344 227.546875 186.679688 226.425781 187.515625 225.515625 C 188.355469 224.601562 189.605469 224.207031 190.808594 224.152344 C 191.96875 224.101562 193.292969 224.710938 194.101562 225.515625 C 194.945312 226.359375 195.464844 227.613281 195.464844 228.808594 Z M 191.988281 262.328125 C 191.695312 263.382812 190.851562 264.609375 189.847656 265.113281 C 189.570312 265.25 189.296875 265.386719 189.019531 265.523438 C 187.855469 266.109375 186.699219 266.285156 185.433594 265.996094 C 184.246094 265.722656 183.289062 264.847656 182.648438 263.855469 C 182.011719 262.867188 181.871094 261.382812 182.179688 260.265625 C 182.472656 259.210938 183.316406 257.988281 184.320312 257.484375 C 184.597656 257.347656 184.871094 257.210938 185.148438 257.070312 C 186.316406 256.488281 187.46875 256.3125 188.734375 256.601562 C 189.921875 256.871094 190.878906 257.746094 191.519531 258.742188 C 192.15625 259.730469 192.296875 261.214844 191.988281 262.328125 Z M 176.738281 196.214844 C 170.734375 196.214844 170.746094 186.902344 176.738281 186.902344 C 182.738281 186.902344 182.730469 196.214844 176.738281 196.214844 Z M 117.785156 294.351562 C 85.300781 294.351562 58.96875 268.019531 58.96875 235.535156 C 58.96875 203.054688 85.300781 176.722656 117.785156 176.722656 C 150.265625 176.722656 176.597656 203.054688 176.597656 235.535156 C 176.597656 268.019531 150.265625 294.351562 117.785156 294.351562 Z M 174.550781 295.308594 C 173.925781 296.375 172.914062 297.066406 171.765625 297.449219 C 171.351562 297.589844 170.9375 297.726562 170.523438 297.863281 C 169.335938 298.261719 168.011719 297.964844 166.9375 297.394531 C 165.859375 296.824219 165.160156 295.738281 164.796875 294.613281 C 164.433594 293.492188 164.683594 292.023438 165.265625 291.023438 C 165.890625 289.960938 166.898438 289.265625 168.050781 288.882812 C 168.464844 288.746094 168.878906 288.609375 169.289062 288.46875 C 170.480469 288.074219 171.804688 288.371094 172.878906 288.9375 C 173.957031 289.507812 174.652344 290.59375 175.019531 291.722656 C 175.378906 292.839844 175.132812 294.3125 174.550781 295.308594 Z M 142.363281 310.320312 C 141.574219 311.113281 140.21875 311.761719 139.074219 311.683594 C 137.820312 311.601562 136.535156 311.234375 135.65625 310.269531 C 134.804688 309.339844 134.285156 308.171875 134.265625 306.90625 C 134.246094 305.820312 134.628906 304.777344 135.285156 303.929688 C 135.71875 303.367188 135.90625 303.066406 136.636719 302.679688 C 136.90625 302.539062 137.523438 302.242188 137.824219 302.199219 C 138.648438 301.980469 139.472656 301.980469 140.300781 302.199219 C 140.667969 302.359375 141.039062 302.515625 141.410156 302.671875 C 142.488281 303.238281 143.1875 304.328125 143.550781 305.453125 C 143.679688 305.851562 143.707031 306.292969 143.695312 306.742188 C 143.703125 306.839844 143.726562 306.933594 143.730469 307.027344 C 143.78125 308.1875 143.171875 309.511719 142.363281 310.320312 Z M 110.617188 309.929688 C 110.617188 311.191406 110.09375 312.3125 109.253906 313.222656 C 108.417969 314.136719 107.167969 314.53125 105.964844 314.585938 C 104.804688 314.636719 103.480469 314.027344 102.671875 313.222656 C 101.828125 312.378906 101.308594 311.121094 101.308594 309.929688 L 101.308594 309.515625 C 101.308594 308.253906 101.835938 307.132812 102.671875 306.222656 C 103.511719 305.308594 104.757812 304.914062 105.964844 304.859375 C 107.121094 304.808594 108.449219 305.414062 109.253906 306.222656 C 110.101562 307.066406 110.617188 308.320312 110.617188 309.515625 Z M 78.214844 302.046875 C 77.429688 302.902344 76.0625 303.410156 74.921875 303.410156 C 73.726562 303.410156 72.472656 302.890625 71.628906 302.046875 L 70.800781 301.21875 C 69.910156 300.328125 69.492188 299.160156 69.4375 297.925781 C 69.382812 296.6875 69.988281 295.519531 70.800781 294.632812 C 71.589844 293.777344 72.953125 293.269531 74.09375 293.269531 C 75.289062 293.269531 76.542969 293.789062 77.386719 294.632812 L 78.214844 295.460938 C 79.105469 296.351562 79.523438 297.519531 79.578125 298.753906 C 79.632812 299.996094 79.03125 301.160156 78.214844 302.046875 Z M 57.433594 188.246094 C 57.382812 187.089844 57.992188 185.761719 58.800781 184.957031 C 59.644531 184.109375 60.898438 183.59375 62.09375 183.59375 L 62.507812 183.59375 C 63.769531 183.59375 64.886719 184.121094 65.796875 184.957031 C 66.710938 185.796875 67.109375 187.046875 67.160156 188.246094 C 67.214844 189.40625 66.605469 190.734375 65.796875 191.539062 C 64.953125 192.382812 63.699219 192.902344 62.507812 192.902344 L 62.09375 192.902344 C 60.832031 192.902344 59.710938 192.378906 58.800781 191.539062 C 57.886719 190.703125 57.488281 189.453125 57.433594 188.246094 Z M 53.917969 266.886719 C 53.917969 268.148438 53.390625 269.265625 52.554688 270.179688 C 51.714844 271.09375 50.464844 271.488281 49.261719 271.542969 C 48.101562 271.59375 46.777344 270.984375 45.96875 270.179688 C 45.125 269.335938 44.605469 268.078125 44.605469 266.886719 L 44.605469 266.472656 C 44.605469 265.210938 45.132812 264.089844 45.96875 263.179688 C 46.808594 262.265625 48.058594 261.871094 49.261719 261.816406 C 50.421875 261.761719 51.746094 262.371094 52.554688 263.179688 C 53.398438 264.023438 53.917969 265.277344 53.917969 266.472656 Z M 41.292969 224.257812 C 41.292969 223.0625 41.8125 221.808594 42.65625 220.964844 C 42.796875 220.824219 42.933594 220.6875 43.070312 220.550781 C 43.964844 219.660156 45.128906 219.242188 46.363281 219.183594 C 47.605469 219.128906 48.769531 219.734375 49.65625 220.550781 C 50.511719 221.335938 51.019531 222.699219 51.019531 223.839844 C 51.019531 225.035156 50.5 226.289062 49.65625 227.132812 C 49.519531 227.273438 49.382812 227.410156 49.242188 227.546875 C 48.351562 228.4375 47.183594 228.855469 45.949219 228.910156 C 44.710938 228.96875 43.546875 228.363281 42.65625 227.546875 C 41.800781 226.761719 41.292969 225.398438 41.292969 224.257812 Z M 88.183594 165.089844 C 89.03125 164.246094 90.285156 163.726562 91.476562 163.726562 L 91.890625 163.726562 C 93.152344 163.726562 94.273438 164.253906 95.183594 165.089844 C 96.097656 165.929688 96.492188 167.175781 96.546875 168.382812 C 96.597656 169.542969 95.992188 170.867188 95.183594 171.675781 C 94.339844 172.519531 93.085938 173.039062 91.890625 173.039062 L 91.476562 173.039062 C 90.214844 173.039062 89.097656 172.511719 88.183594 171.675781 C 87.269531 170.835938 86.875 169.585938 86.820312 168.382812 C 86.769531 167.222656 87.378906 165.898438 88.183594 165.089844 Z M 138.679688 162.605469 C 138.816406 162.46875 138.953125 162.332031 139.09375 162.191406 C 139.984375 161.300781 141.148438 160.882812 142.386719 160.828125 C 143.625 160.773438 144.789062 161.378906 145.675781 162.191406 C 146.535156 162.980469 147.039062 164.34375 147.039062 165.484375 C 147.039062 166.679688 146.523438 167.933594 145.675781 168.777344 C 145.539062 168.914062 145.402344 169.054688 145.261719 169.191406 C 144.371094 170.082031 143.207031 170.5 141.972656 170.554688 C 140.730469 170.609375 139.566406 170.003906 138.679688 169.191406 C 137.820312 168.40625 137.316406 167.039062 137.316406 165.898438 C 137.316406 164.703125 137.835938 163.449219 138.679688 162.605469 Z M 202.6875 245.4375 L 202.539062 245.335938 C 202.652344 242.9375 202.703125 240.527344 202.679688 238.113281 C 202.484375 219.425781 197.578125 201.242188 193.699219 183.492188 C 185.703125 146.890625 177.042969 110.253906 163.84375 76.316406 C 154.144531 51.375 140.03125 4.363281 117.757812 0.0078125 C 95.484375 4.363281 81.375 51.375 71.671875 76.316406 C 58.472656 110.253906 49.816406 146.890625 41.816406 183.492188 C 37.9375 201.242188 33.03125 219.425781 32.839844 238.113281 C 32.8125 240.527344 32.863281 242.9375 32.976562 245.335938 L 32.832031 245.4375 C 32.832031 245.4375 32.328125 351.421875 81.722656 471.070312 L 153.796875 471.070312 C 203.191406 351.421875 202.6875 245.4375 202.6875 245.4375" fill="#f8e505"/></g><g id="change4_1"><path d="M 114.941406 471.070312 L 114.941406 495.773438 C 114.941406 497.199219 116.101562 498.359375 117.527344 498.359375 C 118.957031 498.359375 120.113281 497.199219 120.113281 495.773438 L 120.113281 471.070312 Z M 127.34375 495.183594 C 127.105469 496.59375 128.050781 497.929688 129.460938 498.171875 C 129.605469 498.195312 129.753906 498.210938 129.898438 498.210938 C 131.136719 498.210938 132.230469 497.316406 132.445312 496.058594 L 136.71875 471.070312 L 131.46875 471.070312 Z M 104.15625 471.070312 L 98.910156 471.070312 L 103.183594 496.058594 C 103.398438 497.316406 104.492188 498.210938 105.730469 498.210938 C 105.875 498.210938 106.023438 498.195312 106.167969 498.171875 C 107.578125 497.929688 108.523438 496.59375 108.28125 495.183594 Z M 161.132812 235.539062 C 161.132812 211.636719 141.6875 192.1875 117.785156 192.1875 C 93.882812 192.1875 74.433594 211.636719 74.433594 235.539062 C 74.433594 259.441406 93.882812 278.886719 117.785156 278.886719 C 141.6875 278.886719 161.132812 259.441406 161.132812 235.539062 Z M 166.304688 235.539062 C 166.304688 262.292969 144.539062 284.058594 117.785156 284.058594 C 91.027344 284.058594 69.261719 262.292969 69.261719 235.539062 C 69.261719 208.78125 91.027344 187.015625 117.785156 187.015625 C 144.539062 187.015625 166.304688 208.78125 166.304688 235.539062 Z M 170.71875 90.871094 C 152.148438 98.96875 134.335938 101.671875 118.839844 101.671875 C 88 101.671875 66.320312 90.972656 65.996094 90.808594 C 64.722656 90.164062 64.214844 88.609375 64.855469 87.335938 C 65.5 86.0625 67.054688 85.550781 68.332031 86.191406 C 68.796875 86.425781 115.414062 109.339844 168.652344 86.128906 C 169.960938 85.558594 171.484375 86.160156 172.054688 87.46875 C 172.628906 88.777344 172.027344 90.300781 170.71875 90.871094" fill="#110f0d"/></g><g id="change5_1"><path d="M 163.71875 75.992188 C 152.660156 80.746094 137.554688 84.679688 117.757812 84.679688 C 97.785156 84.679688 82.738281 80.675781 71.847656 75.859375 C 81.542969 50.808594 95.617188 4.335938 117.757812 0.0078125 C 139.9375 4.34375 154.019531 50.96875 163.71875 75.992188" fill="#ea7e16"/></g></g></svg>