<svg xmlns="http://www.w3.org/2000/svg" width="512" height="512" viewBox="0 0 512 512" fill="none"><rect width="512" height="512" rx="120" fill="#222222"/><path d="M102.9 369.022L193.989 204.892C194.37 204.207 195.356 204.206 195.737 204.891L231.886 269.794C232.054 270.096 232.055 270.462 231.888 270.764L171.554 380.041L168.87 385.024C168.696 385.348 168.358 385.55 167.99 385.55H95.6742C94.9175 385.55 94.435 384.742 94.7937 384.076L102.9 369.022ZM408.877 369.022L416.983 384.076C417.341 384.742 416.859 385.55 416.102 385.55H343.786C343.419 385.55 343.08 385.348 342.906 385.024L340.223 380.041L284.282 279.178L256.736 229.595L255.888 227.9L218.859 160.994C218.694 160.697 218.692 160.336 218.853 160.036L221.561 155.007L245.717 110.933L248.407 105.553C248.577 105.214 248.923 105 249.302 105H262.433C262.833 105 263.195 105.238 263.352 105.606L265.635 110.933L290.215 155.007L408.877 369.022Z" fill="white"/></svg>